<?xml version="1.0" encoding="UTF-8"?>
<svg width="1976px" height="606px" viewBox="0 0 1976 606" version="1.1" xmlns="http://www.w3.org/2000/svg" xmlns:xlink="http://www.w3.org/1999/xlink">
    <!-- Generator: Sketch 53.2 (72643) - https://sketchapp.com -->
    <title>Group</title>
    <desc>Created with Sketch.</desc>
    <defs>
        <polygon id="path-1" points="0 0.367525209 57.962552 0.367525209 57.962552 96 0 96"></polygon>
    </defs>
    <g id="Page-1" stroke="none" stroke-width="1" fill="none" fill-rule="evenodd">
        <g id="Group" transform="translate(0.000000, 0.428571)">
            <text id="" font-family="FontAwesome" font-size="300" font-weight="normal" fill="#FFFFFF">
                <tspan x="171" y="344.571429"></tspan>
            </text>
            <text id="" font-family="FontAwesome" font-size="150" font-weight="normal" fill="#FFFFFF">
                <tspan x="0" y="299.571429"></tspan>
            </text>
            <path d="M1140.53516,208.821429 L1140.53516,168.567522 L1127,168.567522 L1127,152.571429 L1140.53516,152.571429 L1140.53516,139.915179 C1140.53516,133.235458 1142.41014,128.049963 1146.16016,124.358538 C1149.91017,120.667113 1154.89059,118.821429 1161.10156,118.821429 C1166.14065,118.821429 1170.24217,119.055801 1173.40625,119.524554 L1173.40625,133.762835 L1164.96875,133.762835 C1161.80467,133.762835 1159.63672,134.465953 1158.46484,135.87221 C1157.52734,137.044091 1157.05859,138.919072 1157.05859,141.49721 L1157.05859,152.571429 L1172,152.571429 L1169.89062,168.567522 L1157.05859,168.567522 L1157.05859,208.821429 L1140.53516,208.821429 Z" id="" fill="#FFFFFF" fill-rule="nonzero"></path>
            <path d="M1278.87388,127.896205 C1279.71094,127.059148 1280.12946,125.954248 1280.12946,124.581473 C1280.12946,123.208698 1279.71094,122.103799 1278.87388,121.266741 C1278.03683,120.429683 1276.93193,120.011161 1275.55915,120.011161 C1274.11941,120.011161 1272.8471,120.438054 1271.74219,121.291853 C1270.63727,122.145652 1270.08482,123.242181 1270.08482,124.581473 C1270.08482,125.887283 1270.63727,126.967072 1271.74219,127.820871 C1272.8471,128.674669 1274.11941,129.101562 1275.55915,129.101562 C1276.93193,129.101562 1278.03683,128.699781 1278.87388,127.896205 Z M1317.44531,150.044643 C1317.44531,149.107138 1317.01842,148.270093 1316.16462,147.533482 C1315.31082,146.796871 1314.21429,146.428571 1312.875,146.428571 C1311.97098,146.428571 1311.1423,146.805242 1310.38895,147.558594 C1309.6356,148.311946 1309.25893,149.14062 1309.25893,150.044643 C1309.25893,150.982148 1309.6356,151.827563 1310.38895,152.580915 C1311.1423,153.334267 1311.97098,153.710938 1312.875,153.710938 C1314.21429,153.710938 1315.31082,153.342638 1316.16462,152.606027 C1317.01842,151.869416 1317.44531,151.01563 1317.44531,150.044643 Z M1304.33705,127.896205 C1305.17411,127.059148 1305.59263,125.954248 1305.59263,124.581473 C1305.59263,123.208698 1305.18248,122.103799 1304.36217,121.266741 C1303.54185,120.429683 1302.44532,120.011161 1301.07254,120.011161 C1299.63281,120.011161 1298.3605,120.438054 1297.25558,121.291853 C1296.15066,122.145652 1295.59821,123.242181 1295.59821,124.581473 C1295.59821,125.887283 1296.15066,126.967072 1297.25558,127.820871 C1298.3605,128.674669 1299.63281,129.101562 1301.07254,129.101562 C1302.44532,129.101562 1303.53348,128.699781 1304.33705,127.896205 Z M1337.48438,150.044643 C1337.48438,149.107138 1337.04911,148.270093 1336.17857,147.533482 C1335.30803,146.796871 1334.21987,146.428571 1332.91406,146.428571 C1332.01004,146.428571 1331.18137,146.805242 1330.42801,147.558594 C1329.67466,148.311946 1329.29799,149.14062 1329.29799,150.044643 C1329.29799,150.982148 1329.67466,151.827563 1330.42801,152.580915 C1331.18137,153.334267 1332.01004,153.710938 1332.91406,153.710938 C1334.21987,153.710938 1335.30803,153.342638 1336.17857,152.606027 C1337.04911,151.869416 1337.48438,151.01563 1337.48438,150.044643 Z M1324.125,130.106027 C1323.08705,129.972098 1321.91519,129.905134 1320.60938,129.905134 C1314.95086,129.905134 1309.74444,131.194184 1304.98996,133.772321 C1300.23547,136.350459 1296.49388,139.840938 1293.76507,144.243862 C1291.03626,148.646785 1289.67188,153.459795 1289.67188,158.683036 C1289.67188,161.294656 1290.05692,163.839273 1290.82701,166.316964 C1289.65513,166.417411 1288.51675,166.467634 1287.41183,166.467634 C1286.54129,166.467634 1285.70425,166.442523 1284.90067,166.392299 C1284.09709,166.342076 1283.17634,166.23326 1282.13839,166.065848 C1281.10044,165.898437 1280.35547,165.78125 1279.90346,165.714286 C1279.45145,165.647321 1278.53907,165.471542 1277.16629,165.186942 C1275.79352,164.902342 1274.95647,164.726563 1274.65513,164.659598 L1261.94866,171.037946 L1265.56473,160.089286 C1255.85486,153.292377 1251,145.089334 1251,135.479911 C1251,129.8214 1252.63224,124.614979 1255.89676,119.860491 C1259.16129,115.106003 1263.58089,111.364411 1269.15569,108.635603 C1274.7305,105.906794 1280.81582,104.542411 1287.41183,104.542411 C1293.30472,104.542411 1298.87107,105.64731 1304.11105,107.857143 C1309.35103,110.066975 1313.73715,113.12219 1317.26953,117.022879 C1320.80191,120.923569 1323.08705,125.284574 1324.125,130.106027 Z M1353.85714,158.28125 C1353.85714,162.19868 1352.71039,165.940272 1350.41685,169.506138 C1348.12331,173.072004 1345.01788,176.311369 1341.10045,179.22433 L1343.86272,188.314732 L1333.8683,182.840402 C1328.84596,184.079247 1325.19644,184.698661 1322.91964,184.698661 C1317.26113,184.698661 1312.05471,183.518427 1307.30022,181.157924 C1302.54574,178.797421 1298.80414,175.591538 1296.07533,171.540179 C1293.34653,167.488819 1291.98214,163.06922 1291.98214,158.28125 C1291.98214,153.49328 1293.34653,149.073681 1296.07533,145.022321 C1298.80414,140.970962 1302.54574,137.765079 1307.30022,135.404576 C1312.05471,133.044073 1317.26113,131.863839 1322.91964,131.863839 C1328.31029,131.863839 1333.38279,133.044073 1338.13728,135.404576 C1342.89176,137.765079 1346.70032,140.979332 1349.56306,145.047433 C1352.4258,149.115534 1353.85714,153.526762 1353.85714,158.28125 Z" id="" fill="#FFFFFF" fill-rule="nonzero"></path>
            <path d="M1443.66183,145.518973 C1446.173,143.0078 1447.42857,139.977696 1447.42857,136.428571 C1447.42857,132.879447 1446.173,129.849343 1443.66183,127.33817 C1441.15066,124.826996 1438.12055,123.571429 1434.57143,123.571429 C1431.0223,123.571429 1427.9922,124.826996 1425.48103,127.33817 C1422.96985,129.849343 1421.71429,132.879447 1421.71429,136.428571 C1421.71429,139.977696 1422.96985,143.0078 1425.48103,145.518973 C1427.9922,148.030146 1431.0223,149.285714 1434.57143,149.285714 C1438.12055,149.285714 1441.15066,148.030146 1443.66183,145.518973 Z M1448.58371,122.416295 C1452.43417,126.26676 1454.35937,130.937473 1454.35937,136.428571 C1454.35937,141.91967 1452.43417,146.590383 1448.58371,150.440848 C1444.73324,154.291314 1440.06253,156.216518 1434.57143,156.216518 C1429.08033,156.216518 1424.40962,154.291314 1420.55915,150.440848 C1416.70869,146.590383 1414.78348,141.91967 1414.78348,136.428571 C1414.78348,130.937473 1416.70869,126.26676 1420.55915,122.416295 C1424.40962,118.565829 1429.08033,116.640625 1434.57143,116.640625 C1440.06253,116.640625 1444.73324,118.565829 1448.58371,122.416295 Z M1458.42746,112.572545 C1459.33148,113.476567 1459.78348,114.564726 1459.78348,115.837054 C1459.78348,117.109381 1459.33148,118.19754 1458.42746,119.101562 C1457.52343,120.005585 1456.43527,120.457589 1455.16295,120.457589 C1453.89062,120.457589 1452.80246,120.005585 1451.89844,119.101562 C1450.99442,118.19754 1450.54241,117.109381 1450.54241,115.837054 C1450.54241,114.564726 1450.99442,113.476567 1451.89844,112.572545 C1452.80246,111.668522 1453.89062,111.216518 1455.16295,111.216518 C1456.43527,111.216518 1457.52343,111.668522 1458.42746,112.572545 Z M1438.38839,104.787946 L1434.57143,104.787946 C1434.33705,104.787946 1433.05637,104.779576 1430.72935,104.762835 C1428.40233,104.746094 1426.63617,104.746094 1425.4308,104.762835 C1424.22544,104.779576 1422.60994,104.829799 1420.58426,104.913504 C1418.55858,104.99721 1416.83427,105.164619 1415.41127,105.415737 C1413.98827,105.666854 1412.7913,105.976561 1411.82031,106.344866 C1410.1462,107.014512 1408.673,107.985485 1407.40067,109.257813 C1406.12834,110.53014 1405.15737,112.00334 1404.48772,113.677455 C1404.11942,114.648442 1403.80971,115.845417 1403.55859,117.268415 C1403.30748,118.691413 1403.14007,120.415726 1403.05636,122.441406 C1402.97266,124.467086 1402.92243,126.082583 1402.90569,127.287946 C1402.88895,128.49331 1402.88895,130.259475 1402.90569,132.586496 C1402.92243,134.913516 1402.9308,136.194195 1402.9308,136.428571 C1402.9308,136.662948 1402.92243,137.943627 1402.90569,140.270647 C1402.88895,142.597668 1402.88895,144.363833 1402.90569,145.569196 C1402.92243,146.77456 1402.97266,148.390057 1403.05636,150.415737 C1403.14007,152.441416 1403.30748,154.165729 1403.55859,155.588728 C1403.80971,157.011726 1404.11942,158.208701 1404.48772,159.179687 C1405.15737,160.853803 1406.12834,162.327003 1407.40067,163.59933 C1408.673,164.871658 1410.1462,165.842631 1411.82031,166.512277 C1412.7913,166.880582 1413.98827,167.190289 1415.41127,167.441406 C1416.83427,167.692524 1418.55858,167.859933 1420.58426,167.943638 C1422.60994,168.027344 1424.22544,168.077567 1425.4308,168.094308 C1426.63617,168.111049 1428.40233,168.111049 1430.72935,168.094308 C1433.05637,168.077567 1434.33705,168.069196 1434.57143,168.069196 C1434.8058,168.069196 1436.08648,168.077567 1438.4135,168.094308 C1440.74053,168.111049 1442.50669,168.111049 1443.71205,168.094308 C1444.91742,168.077567 1446.53291,168.027344 1448.55859,167.943638 C1450.58427,167.859933 1452.30859,167.692524 1453.73158,167.441406 C1455.15458,167.190289 1456.35156,166.880582 1457.32254,166.512277 C1458.99666,165.842631 1460.46986,164.871658 1461.74219,163.59933 C1463.01452,162.327003 1463.98549,160.853803 1464.65513,159.179687 C1465.02344,158.208701 1465.33315,157.011726 1465.58426,155.588728 C1465.83538,154.165729 1466.00279,152.441416 1466.0865,150.415737 C1466.1702,148.390057 1466.22042,146.77456 1466.23717,145.569196 C1466.25391,144.363833 1466.25391,142.597668 1466.23717,140.270647 C1466.22042,137.943627 1466.21205,136.662948 1466.21205,136.428571 C1466.21205,136.194195 1466.22042,134.913516 1466.23717,132.586496 C1466.25391,130.259475 1466.25391,128.49331 1466.23717,127.287946 C1466.22042,126.082583 1466.1702,124.467086 1466.0865,122.441406 C1466.00279,120.415726 1465.83538,118.691413 1465.58426,117.268415 C1465.33315,115.845417 1465.02344,114.648442 1464.65513,113.677455 C1463.98549,112.00334 1463.01452,110.53014 1461.74219,109.257813 C1460.46986,107.985485 1458.99666,107.014512 1457.32254,106.344866 C1456.35156,105.976561 1455.15458,105.666854 1453.73158,105.415737 C1452.30859,105.164619 1450.58427,104.99721 1448.55859,104.913504 C1446.53291,104.829799 1444.91742,104.779576 1443.71205,104.762835 C1442.50669,104.746094 1440.73215,104.754464 1438.38839,104.787946 Z M1472.89174,120.507812 C1473.05915,123.454256 1473.14286,128.761122 1473.14286,136.428571 C1473.14286,144.09602 1473.05915,149.402887 1472.89174,152.34933 C1472.55692,159.313651 1470.48105,164.704222 1466.66406,168.521205 C1462.84708,172.338189 1457.45651,174.414061 1450.49219,174.748884 C1447.54574,174.916295 1442.23888,175 1434.57143,175 C1426.90398,175 1421.59711,174.916295 1418.65067,174.748884 C1411.68635,174.414061 1406.29578,172.338189 1402.47879,168.521205 C1398.66181,164.704222 1396.58594,159.313651 1396.25112,152.34933 C1396.0837,149.402887 1396,144.09602 1396,136.428571 C1396,128.761122 1396.0837,123.454256 1396.25112,120.507812 C1396.58594,113.543492 1398.66181,108.152921 1402.47879,104.335937 C1406.29578,100.518954 1411.68635,98.443082 1418.65067,98.1082589 C1421.59711,97.9408474 1426.90398,97.8571429 1434.57143,97.8571429 C1442.23888,97.8571429 1447.54574,97.9408474 1450.49219,98.1082589 C1457.45651,98.443082 1462.84708,100.518954 1466.66406,104.335937 C1470.48105,108.152921 1472.55692,113.543492 1472.89174,120.507812 Z" id="" fill="#FFFFFF" fill-rule="nonzero"></path>
            <path d="M1190.89621,78.5580357 C1191.39844,78.3571419 1191.8337,78.3069191 1192.20201,78.4073661 C1192.57031,78.507813 1192.75446,78.8007788 1192.75446,79.2862723 C1192.75446,79.7717658 1192.50335,80.3325861 1192.00112,80.96875 C1191.56585,81.504467 1190.82925,82.2326963 1189.79129,83.1534598 C1188.75334,84.0742234 1187.15459,85.2126048 1184.99498,86.5686384 C1182.83537,87.924672 1180.4749,89.1634989 1177.9135,90.2851562 C1175.35211,91.4068136 1172.20482,92.3777861 1168.47154,93.1981027 C1164.73826,94.0184193 1160.89623,94.4285714 1156.94531,94.4285714 C1152.96092,94.4285714 1148.97658,93.9096034 1144.99219,92.8716518 C1141.00779,91.8337002 1137.50894,90.553021 1134.49554,89.0295759 C1131.48213,87.5061308 1128.59432,85.7650768 1125.83203,83.8063616 C1123.06974,81.8476465 1120.85157,80.0898515 1119.17746,78.5329241 C1117.50334,76.9759967 1116.0971,75.5111676 1114.95871,74.1383929 C1114.69085,73.8370521 1114.52344,73.5608271 1114.45647,73.3097098 C1114.38951,73.0585925 1114.40625,72.8577016 1114.5067,72.7070312 C1114.60714,72.5563609 1114.74107,72.4391745 1114.90848,72.3554688 C1115.07589,72.271763 1115.26841,72.2382812 1115.48605,72.2550223 C1115.70368,72.2717635 1115.8962,72.3470975 1116.06362,72.4810268 C1122.49222,76.3984571 1127.51449,79.1774472 1131.13058,80.8180804 C1144.1552,86.710967 1157.53118,88.2176483 1171.25893,85.3381696 C1177.62057,83.9988772 1184.16626,81.7388552 1190.89621,78.5580357 Z M1201.29241,72.7823661 C1201.66072,73.318083 1201.70257,74.4815759 1201.41797,76.2728795 C1201.13337,78.0641831 1200.65625,79.7801257 1199.98661,81.4207589 C1198.84821,84.1997907 1197.42523,86.2756628 1195.71763,87.6484375 C1195.14843,88.1171898 1194.71317,88.267858 1194.41183,88.1004464 C1194.11049,87.9330349 1194.11049,87.5312532 1194.41183,86.8950893 C1195.11496,85.3883853 1195.85993,83.3543655 1196.64676,80.7929688 C1197.4336,78.231572 1197.54241,76.582593 1196.97321,75.8459821 C1196.8058,75.611606 1196.54632,75.4190856 1196.19475,75.2684152 C1195.84319,75.1177448 1195.39119,75.0172994 1194.83873,74.9670759 C1194.28627,74.9168524 1193.79241,74.8750002 1193.35714,74.8415179 C1192.92187,74.8080355 1192.33594,74.8080355 1191.59933,74.8415179 C1190.86272,74.8750002 1190.33538,74.908482 1190.0173,74.9419643 C1189.69922,74.9754466 1189.18025,75.0256693 1188.46038,75.0926339 C1187.74051,75.1595985 1187.36384,75.1930804 1187.33036,75.1930804 C1187.12946,75.2265627 1186.91183,75.251674 1186.67746,75.2684152 C1186.44308,75.2851563 1186.25893,75.3018972 1186.125,75.3186384 C1185.99107,75.3353795 1185.84877,75.3521205 1185.6981,75.3688616 C1185.54743,75.3856028 1185.43025,75.3939732 1185.34654,75.3939732 L1184.84431,75.3939732 C1184.79408,75.3939732 1184.74386,75.3856028 1184.69364,75.3688616 C1184.64341,75.3521205 1184.60993,75.3270091 1184.59319,75.2935268 L1184.51786,75.1428571 C1184.31696,74.6071402 1185.10379,73.937504 1186.87835,73.1339286 C1188.65291,72.3303531 1190.37722,71.828126 1192.05134,71.6272321 C1193.59153,71.392856 1195.39954,71.3761151 1197.47545,71.5770089 C1199.55135,71.7779028 1200.82366,72.1796845 1201.29241,72.7823661 Z M1181.50446,50.5334821 C1181.50446,51.5714338 1181.73047,52.6428516 1182.18248,53.7477679 C1182.63449,54.8526841 1183.1702,55.8236565 1183.78962,56.6607143 C1184.40904,57.497772 1185.03683,58.2678536 1185.67299,58.9709821 C1186.30915,59.6741107 1186.8616,60.2098196 1187.33036,60.578125 L1187.98326,61.1305804 L1176.58259,72.3805804 C1175.2433,71.1417349 1173.92077,69.8777966 1172.61496,68.5887277 C1171.30915,67.2996587 1170.33817,66.3203158 1169.70201,65.6506696 L1168.74777,64.6462054 C1168.37946,64.2778999 1167.96094,63.7254501 1167.49219,62.9888393 C1166.21986,64.9642956 1164.58762,66.6802383 1162.59542,68.1367188 C1160.60323,69.5931992 1158.46876,70.6562467 1156.19196,71.3258929 C1153.91517,71.9955391 1151.57144,72.3805799 1149.16071,72.4810268 C1146.74999,72.5814737 1144.44811,72.2299147 1142.25502,71.4263393 C1140.06193,70.6227638 1138.09487,69.5262346 1136.35379,68.1367188 C1134.61271,66.7472029 1133.22322,64.8554807 1132.18527,62.4614955 C1131.14732,60.0675104 1130.62835,57.3471134 1130.62835,54.3002232 C1130.62835,51.4877092 1131.09709,48.9096099 1132.0346,46.5658482 C1132.9721,44.2220865 1134.17745,42.2717712 1135.65067,40.7148438 C1137.12389,39.1579163 1138.9068,37.7684213 1140.99944,36.546317 C1143.09209,35.3242126 1145.14285,34.3699811 1147.15179,33.6835938 C1149.16072,32.9972064 1151.33704,32.4196452 1153.6808,31.9508929 C1156.02457,31.4821405 1158.0251,31.1724338 1159.68248,31.0217634 C1161.33985,30.871093 1163.00557,30.7622771 1164.67969,30.6953125 L1164.67969,24.3169643 C1164.67969,22.1406141 1164.32813,20.5167464 1163.625,19.4453125 C1162.4866,17.6707501 1160.46095,16.7834821 1157.54799,16.7834821 C1157.3471,16.7834821 1157.07087,16.800223 1156.71931,16.8337054 C1156.36774,16.8671877 1155.68974,17.0680785 1154.68527,17.4363839 C1153.6808,17.8046893 1152.74331,18.298546 1151.87277,18.9179688 C1151.00223,19.5373915 1150.06474,20.5334753 1149.06027,21.90625 C1148.0558,23.2790247 1147.25224,24.8861515 1146.64955,26.7276786 L1131.88393,25.3716518 C1131.88393,23.3627132 1132.25223,21.3705456 1132.98884,19.3950893 C1133.72545,17.419633 1134.84709,15.5279108 1136.35379,13.7198661 C1137.8605,11.9118213 1139.66852,10.3214354 1141.7779,8.94866071 C1143.88729,7.57588599 1146.42353,6.47935678 1149.38672,5.65904018 C1152.3499,4.83872358 1155.53905,4.42857143 1158.95424,4.42857143 C1162.30247,4.42857143 1165.33258,4.84709403 1168.04464,5.68415179 C1170.75671,6.52120954 1172.92466,7.55077514 1174.54855,8.77287946 C1176.17244,9.99498379 1177.52845,11.3844788 1178.61663,12.9414062 C1179.7048,14.4983337 1180.45815,15.9380514 1180.87667,17.2606027 C1181.2952,18.5831539 1181.50446,19.8136104 1181.50446,20.9520089 L1181.50446,50.5334821 Z M1147.75446,51.5881696 C1147.75446,54.4676483 1148.92633,56.6941886 1151.27009,58.2678571 C1153.47992,59.7410788 1155.80691,60.1093787 1158.25112,59.3727679 C1161.06363,58.5357101 1162.97209,56.4765789 1163.97656,53.1953125 C1164.44531,51.6886085 1164.67969,49.9977772 1164.67969,48.1227679 L1164.67969,39.9866071 C1162.70423,40.0535718 1160.84599,40.2544626 1159.10491,40.5892857 C1157.36383,40.9241088 1155.58092,41.4849291 1153.75614,42.2717634 C1151.93135,43.0585977 1150.47489,44.2472019 1149.38672,45.8376116 C1148.29854,47.4280213 1147.75446,49.3448549 1147.75446,51.5881696 Z" id="" fill="#FFFFFF" fill-rule="nonzero"></path>
            <path d="M1270.93304,31.2589286 C1270.93304,32.250005 1270.59152,33.0736574 1269.90848,33.7299107 C1269.22544,34.386164 1268.3884,34.7142857 1267.39732,34.7142857 C1266.62053,34.7142857 1265.99777,34.5000021 1265.52902,34.0714286 C1265.06027,33.642855 1264.82589,33.0535752 1264.82589,32.3035714 C1264.82589,31.312495 1265.16071,30.4754498 1265.83036,29.7924107 C1266.5,29.1093716 1267.33035,28.7678571 1268.32143,28.7678571 C1269.07143,28.7678571 1269.69419,28.9888371 1270.18973,29.4308036 C1270.68527,29.8727701 1270.93304,30.482139 1270.93304,31.2589286 Z M1302.47321,25.2723214 C1302.47321,26.3973271 1302.17857,27.1607123 1301.58929,27.5625 C1301,27.9642877 1300.11608,28.1651786 1298.9375,28.1651786 L1297.65179,28.2053571 L1298.33482,23.90625 C1298.38839,23.6116057 1298.5625,23.4642857 1298.85714,23.4642857 L1299.58036,23.4642857 C1300.16965,23.4642857 1300.63839,23.4910712 1300.98661,23.5446429 C1301.33482,23.5982146 1301.66964,23.7656236 1301.99107,24.046875 C1302.3125,24.3281264 1302.47321,24.7366045 1302.47321,25.2723214 Z M1316.57589,31.2589286 C1316.57589,32.2232191 1316.23438,33.0401752 1315.55134,33.7098214 C1314.8683,34.3794676 1314.04465,34.7142857 1313.08036,34.7142857 C1312.30357,34.7142857 1311.67411,34.5000021 1311.19196,34.0714286 C1310.70982,33.642855 1310.46875,33.0535752 1310.46875,32.3035714 C1310.46875,31.312495 1310.80357,30.4754498 1311.47321,29.7924107 C1312.14286,29.1093716 1312.97321,28.7678571 1313.96429,28.7678571 C1314.71429,28.7678571 1315.33705,28.9888371 1315.83259,29.4308036 C1316.32813,29.8727701 1316.57589,30.482139 1316.57589,31.2589286 Z M1261.61161,24.3883929 C1261.61161,22.8080278 1261.09599,21.66295 1260.06473,20.953125 C1259.03348,20.2433 1257.68751,19.8883929 1256.02679,19.8883929 L1249.59821,19.8883929 C1249.08928,19.8883929 1248.80804,20.1428546 1248.75446,20.6517857 L1246.14286,37.0446429 C1246.11607,37.2053579 1246.15625,37.3526779 1246.26339,37.4866071 C1246.37054,37.6205364 1246.50446,37.6875 1246.66518,37.6875 L1249.71875,37.6875 C1250.25447,37.6875 1250.54911,37.4330383 1250.60268,36.9241071 L1251.32589,32.5044643 C1251.35268,32.2901775 1251.44643,32.1160721 1251.60714,31.9821429 C1251.76786,31.8482136 1251.96875,31.7611609 1252.20982,31.7209821 C1252.45089,31.6808034 1252.67857,31.6607143 1252.89286,31.6607143 C1253.10714,31.6607143 1253.36161,31.674107 1253.65625,31.7008929 C1253.95089,31.7276787 1254.13839,31.7410714 1254.21875,31.7410714 C1256.52233,31.7410714 1258.33035,31.0915244 1259.64286,29.7924107 C1260.95536,28.4932971 1261.61161,26.6919758 1261.61161,24.3883929 Z M1274.02679,36.9241071 L1275.67411,26.4375 C1275.70089,26.2767849 1275.66071,26.129465 1275.55357,25.9955357 C1275.44643,25.8616065 1275.3125,25.7946429 1275.15179,25.7946429 L1272.09821,25.7946429 C1271.72321,25.7946429 1271.49554,26.2366027 1271.41518,27.1205357 C1270.69196,26.0491018 1269.41965,25.5133929 1267.59821,25.5133929 C1265.66963,25.5133929 1264.02902,26.2365999 1262.67634,27.6830357 C1261.32365,29.1294715 1260.64732,30.8303474 1260.64732,32.7857143 C1260.64732,34.3660793 1261.10937,35.6249953 1262.03348,36.5625 C1262.95759,37.5000047 1264.19642,37.96875 1265.75,37.96875 C1266.5,37.96875 1267.27678,37.8080373 1268.08036,37.4866071 C1268.88393,37.165177 1269.52678,36.7366098 1270.00893,36.2008929 C1269.90179,36.522323 1269.84821,36.8035702 1269.84821,37.0446429 C1269.84821,37.4732164 1270.02232,37.6875 1270.37054,37.6875 L1273.14286,37.6875 C1273.65179,37.6875 1273.94643,37.4330383 1274.02679,36.9241071 Z M1291.90625,26.6383929 C1291.95982,26.5848212 1291.98661,26.4910721 1291.98661,26.3571429 C1291.98661,26.2232136 1291.93304,26.0959827 1291.82589,25.9754464 C1291.71875,25.8549101 1291.59821,25.7946429 1291.46429,25.7946429 L1288.37054,25.7946429 C1288.07589,25.7946429 1287.83482,25.9285701 1287.64732,26.1964286 L1283.38839,32.4642857 L1281.62054,26.4375 C1281.48661,26.0089264 1281.19197,25.7946429 1280.73661,25.7946429 L1277.72321,25.7946429 C1277.58929,25.7946429 1277.46875,25.8549101 1277.36161,25.9754464 C1277.25446,26.0959827 1277.20089,26.2232136 1277.20089,26.3571429 C1277.20089,26.4107146 1277.46205,27.2008852 1277.98438,28.7276786 C1278.5067,30.2544719 1279.06919,31.9017769 1279.67188,33.6696429 C1280.27456,35.4375088 1280.58929,36.3749995 1280.61607,36.4821429 C1278.41963,39.4821579 1277.32143,41.0892846 1277.32143,41.3035714 C1277.32143,41.6517875 1277.49553,41.8258929 1277.84375,41.8258929 L1280.9375,41.8258929 C1281.23214,41.8258929 1281.47321,41.6919656 1281.66071,41.4241071 L1291.90625,26.6383929 Z M1307.25446,24.3883929 C1307.25446,22.8080278 1306.73884,21.66295 1305.70759,20.953125 C1304.67633,20.2433 1303.33037,19.8883929 1301.66964,19.8883929 L1295.28125,19.8883929 C1294.74553,19.8883929 1294.45089,20.1428546 1294.39732,20.6517857 L1291.78571,37.0446429 C1291.75893,37.2053579 1291.79911,37.3526779 1291.90625,37.4866071 C1292.01339,37.6205364 1292.14732,37.6875 1292.30804,37.6875 L1295.60268,37.6875 C1295.92411,37.6875 1296.13839,37.5133946 1296.24554,37.1651786 L1296.96875,32.5044643 C1296.99554,32.2901775 1297.08928,32.1160721 1297.25,31.9821429 C1297.41072,31.8482136 1297.61161,31.7611609 1297.85268,31.7209821 C1298.09375,31.6808034 1298.32143,31.6607143 1298.53571,31.6607143 C1298.75,31.6607143 1299.00446,31.674107 1299.29911,31.7008929 C1299.59375,31.7276787 1299.78125,31.7410714 1299.86161,31.7410714 C1302.16519,31.7410714 1303.97321,31.0915244 1305.28571,29.7924107 C1306.59822,28.4932971 1307.25446,26.6919758 1307.25446,24.3883929 Z M1319.66964,36.9241071 L1321.31696,26.4375 C1321.34375,26.2767849 1321.30357,26.129465 1321.19643,25.9955357 C1321.08929,25.8616065 1320.95536,25.7946429 1320.79464,25.7946429 L1317.74107,25.7946429 C1317.36607,25.7946429 1317.13839,26.2366027 1317.05804,27.1205357 C1316.3616,26.0491018 1315.08929,25.5133929 1313.24107,25.5133929 C1311.31249,25.5133929 1309.67188,26.2365999 1308.3192,27.6830357 C1306.96651,29.1294715 1306.29018,30.8303474 1306.29018,32.7857143 C1306.29018,34.3660793 1306.75223,35.6249953 1307.67634,36.5625 C1308.60045,37.5000047 1309.83928,37.96875 1311.39286,37.96875 C1312.16965,37.96875 1312.95982,37.8080373 1313.76339,37.4866071 C1314.56697,37.165177 1315.19643,36.7366098 1315.65179,36.2008929 C1315.65179,36.2276787 1315.625,36.3482132 1315.57143,36.5625 C1315.51786,36.7767868 1315.49107,36.9374995 1315.49107,37.0446429 C1315.49107,37.4732164 1315.66518,37.6875 1316.01339,37.6875 L1318.78571,37.6875 C1319.29465,37.6875 1319.58929,37.4330383 1319.66964,36.9241071 Z M1328.42857,20.4910714 L1328.42857,20.4508929 C1328.42857,20.075891 1328.25447,19.8883929 1327.90625,19.8883929 L1324.93304,19.8883929 C1324.63839,19.8883929 1324.46429,20.0357128 1324.41071,20.3303571 L1321.79911,37.0446429 L1321.75893,37.125 C1321.75893,37.2589292 1321.8125,37.3861601 1321.91964,37.5066964 C1322.02679,37.6272327 1322.16071,37.6875 1322.32143,37.6875 L1324.97321,37.6875 C1325.48215,37.6875 1325.76339,37.4330383 1325.81696,36.9241071 L1328.42857,20.4910714 Z M1256.75,25.875 C1256.61607,26.8125047 1256.26786,27.42857 1255.70536,27.7232143 C1255.14285,28.0178586 1254.33929,28.1651786 1253.29464,28.1651786 L1251.96875,28.2053571 L1252.65179,23.90625 C1252.70536,23.6116057 1252.87946,23.4642857 1253.17411,23.4642857 L1253.9375,23.4642857 C1255.00893,23.4642857 1255.78571,23.618302 1256.26786,23.9263393 C1256.75,24.2343765 1256.91072,24.8839236 1256.75,25.875 Z M1333.57143,5.14285714 L1333.57143,56.5714286 C1333.57143,57.9642927 1333.06251,59.1696378 1332.04464,60.1875 C1331.02678,61.2053622 1329.82144,61.7142857 1328.42857,61.7142857 L1246.14286,61.7142857 C1244.74999,61.7142857 1243.54465,61.2053622 1242.52679,60.1875 C1241.50892,59.1696378 1241,57.9642927 1241,56.5714286 L1241,5.14285714 C1241,3.74999304 1241.50892,2.54464795 1242.52679,1.52678571 C1243.54465,0.508923482 1244.74999,0 1246.14286,0 L1328.42857,0 C1329.82144,0 1331.02678,0.508923482 1332.04464,1.52678571 C1333.06251,2.54464795 1333.57143,3.74999304 1333.57143,5.14285714 Z" id="" fill="#FFFFFF" fill-rule="nonzero"></path>
            <path d="M1450.19141,55.2276786 C1447.49608,55.3448667 1445.44532,55.7257222 1444.03906,56.3702567 C1442.63281,57.0147912 1441.92969,58.0987647 1441.92969,59.6222098 C1441.92969,60.9112788 1442.45703,61.9952523 1443.51172,62.8741629 C1444.56641,63.7530736 1446.08983,64.1925223 1448.08203,64.1925223 C1451.01173,64.1925223 1453.26757,63.4308112 1454.84961,61.9073661 C1456.43165,60.383921 1457.22266,58.274567 1457.22266,55.5792411 L1457.22266,55.0518973 C1454.41014,55.0518973 1452.06642,55.1104905 1450.19141,55.2276786 Z M1462.84766,62.0831473 C1462.84766,63.9581567 1462.90625,65.5401721 1463.02344,66.8292411 L1457.75,66.8292411 C1457.63281,65.7745483 1457.57422,64.602685 1457.57422,63.3136161 C1456.16796,64.9542493 1454.61524,66.1261126 1452.91602,66.8292411 C1451.21679,67.5323696 1449.13673,67.8839286 1446.67578,67.8839286 C1443.27733,67.8839286 1440.64063,67.1222174 1438.76562,65.5987723 C1436.89062,64.0753272 1435.95312,62.200346 1435.95312,59.9737723 C1435.95312,56.9268821 1437.12499,54.758935 1439.46875,53.4698661 C1441.81251,52.1807971 1445.26951,51.4776792 1449.83984,51.3604911 L1457.22266,51.3604911 L1457.22266,50.6573661 C1457.22266,46.7901592 1454.82034,44.8565848 1450.01562,44.8565848 C1448.2578,44.8565848 1446.82227,45.2081438 1445.70898,45.9112723 C1444.5957,46.6144008 1443.98047,47.5518915 1443.86328,48.7237723 L1437.88672,48.7237723 C1438.12109,46.0284463 1439.58592,44.0362788 1442.28125,42.7472098 C1444.39064,41.692517 1447.08592,41.1651786 1450.36719,41.1651786 C1454.11721,41.1651786 1457.04686,41.8682965 1459.15625,43.2745536 C1461.6172,44.9151868 1462.84766,47.3760997 1462.84766,50.6573661 L1462.84766,62.2589286 L1462.84766,62.0831473 Z M1401.5,52.2393973 C1401.38281,49.8956356 1400.53321,48.0792475 1398.95117,46.7901786 C1397.36913,45.5011096 1395.52345,44.8565848 1393.41406,44.8565848 C1391.30468,44.8565848 1389.4297,45.5011096 1387.78906,46.7901786 C1386.14843,48.0792475 1385.15235,49.8956356 1384.80078,52.2393973 L1401.5,52.2393973 Z M1384.80078,55.9308036 C1384.91797,59.0948819 1386.20702,61.4386085 1388.66797,62.9620536 C1390.89454,64.1339344 1393.29686,64.3976037 1395.875,63.7530692 C1398.45314,63.1085347 1400.09375,61.7901885 1400.79688,59.7979911 L1406.59766,59.7979911 C1406.1289,62.493317 1404.4883,64.602671 1401.67578,66.1261161 C1399.44921,67.2979969 1396.75392,67.8839286 1393.58984,67.8839286 C1388.66794,67.8839286 1384.97657,66.6534721 1382.51562,64.1925223 C1380.17186,61.8487606 1379,58.7433229 1379,54.8761161 C1379,50.657345 1380.23046,47.3175346 1382.69141,44.8565848 C1385.15236,42.395635 1388.78513,41.1651786 1393.58984,41.1651786 C1397.80861,41.1651786 1401.14843,42.2784487 1403.60938,44.5050223 C1406.07032,46.731596 1407.30078,50.0714063 1407.30078,54.5245536 L1407.30078,55.9308036 L1384.80078,55.9308036 Z M1421.89062,64.0167411 C1424.46876,64.0167411 1426.57812,63.1378436 1428.21875,61.3800223 C1429.85938,59.622201 1430.67969,57.3370676 1430.67969,54.5245536 C1430.67969,51.7120395 1429.85938,49.4269061 1428.21875,47.6690848 C1426.57812,45.9112635 1424.43947,45.0323661 1421.80273,45.0323661 C1419.166,45.0323661 1417.05665,45.9112635 1415.47461,47.6690848 C1413.89257,49.4269061 1413.10156,51.7120395 1413.10156,54.5245536 C1413.10156,57.3370676 1413.89257,59.622201 1415.47461,61.3800223 C1417.05665,63.1378436 1419.1953,64.0167411 1421.89062,64.0167411 Z M1407.47656,31.3214286 L1413.10156,31.3214286 L1413.10156,45.3839286 C1415.44532,42.5714145 1418.84373,41.1651786 1423.29688,41.1651786 C1426.81252,41.1651786 1429.80077,42.2784487 1432.26172,44.5050223 C1435.19142,46.9659721 1436.65625,50.3057825 1436.65625,54.5245536 C1436.65625,58.3917604 1435.3965,61.5850878 1432.87695,64.1046317 C1430.35741,66.6241755 1427.16408,67.8839286 1423.29688,67.8839286 C1421.18749,67.8839286 1419.22462,67.503073 1417.4082,66.7413504 C1415.59179,65.9796279 1414.09766,64.8956544 1412.92578,63.4893973 C1412.92578,64.6612782 1412.86719,65.7745483 1412.75,66.8292411 L1407.125,66.8292411 C1407.35938,64.2511032 1407.47656,62.3175288 1407.47656,61.0284598 L1407.47656,31.3214286 Z M1491.5,42.0440848 L1474.09766,76.3214286 L1467.76953,76.3214286 L1472.69141,66.8292411 L1459.68359,42.0440848 L1466.1875,42.0440848 L1475.85547,61.3800223 L1485.52344,42.0440848 L1491.5,42.0440848 Z" id="" fill="#FFFFFF" fill-rule="nonzero"></path>
            <path d="M1127.78125,255.258929 L1131.35714,255.258929 L1129.54911,250.919643 L1127.78125,255.258929 Z M1152.73214,276.392857 L1155.70536,273.21875 L1152.89286,270.044643 L1146.34375,270.044643 L1146.34375,272.013393 L1152.04911,272.013393 L1152.04911,274.223214 L1146.34375,274.223214 L1146.34375,276.392857 L1152.73214,276.392857 Z M1159.08036,273.258929 L1163.05804,277.678571 L1163.05804,268.959821 L1159.08036,273.258929 Z M1170.65179,271.370536 C1170.65179,270.486603 1170.11608,270.044643 1169.04464,270.044643 L1165.66964,270.044643 L1165.66964,272.816964 L1169.00446,272.816964 C1170.10268,272.816964 1170.65179,272.334826 1170.65179,271.370536 Z M1182.26339,271.209821 C1182.26339,270.433032 1181.7009,270.044643 1180.57589,270.044643 L1177.28125,270.044643 L1177.28125,272.495536 L1180.53571,272.495536 C1181.68751,272.495536 1182.26339,272.066969 1182.26339,271.209821 Z M1171.09375,252.486607 C1171.09375,251.709818 1170.53126,251.321429 1169.40625,251.321429 L1166.11161,251.321429 L1166.11161,253.732143 L1169.36607,253.732143 C1170.51786,253.732143 1171.09375,253.316968 1171.09375,252.486607 Z M1189.53571,255.258929 L1193.11161,255.258929 L1191.34375,250.919643 L1189.53571,255.258929 Z M1151.08482,249.03125 L1151.08482,259.919643 L1148.43304,259.919643 L1148.43304,251.401786 L1144.65625,259.919643 L1142.36607,259.919643 L1138.58929,251.401786 L1138.58929,259.919643 L1133.28571,259.919643 L1132.28125,257.508929 L1126.85714,257.508929 L1125.85268,259.919643 L1123.04018,259.919643 L1127.70089,249.03125 L1131.55804,249.03125 L1135.97768,259.357143 L1135.97768,249.03125 L1140.23661,249.03125 L1143.65179,256.424107 L1146.74554,249.03125 L1151.08482,249.03125 Z M1173.42411,271.370536 C1173.42411,271.906253 1173.35045,272.374998 1173.20312,272.776786 C1173.0558,273.178573 1172.8683,273.513392 1172.64062,273.78125 C1172.41295,274.049108 1172.11161,274.270088 1171.73661,274.444196 C1171.36161,274.618304 1171.01339,274.752232 1170.69196,274.845982 C1170.37053,274.939733 1169.94866,275 1169.42634,275.026786 C1168.90402,275.053572 1168.48214,275.066964 1168.16071,275.066964 C1167.83928,275.066964 1167.40402,275.060268 1166.85491,275.046875 C1166.3058,275.033482 1165.91072,275.026786 1165.66964,275.026786 L1165.66964,278.683036 L1160.60714,278.683036 L1157.39286,275.066964 L1154.05804,278.683036 L1143.77232,278.683036 L1143.77232,267.794643 L1154.21875,267.794643 L1157.43304,271.370536 L1160.72768,267.794643 L1169.04464,267.794643 C1171.9643,267.794643 1173.42411,268.986595 1173.42411,271.370536 Z M1161.73214,257.669643 L1161.73214,259.919643 L1153.01339,259.919643 L1153.01339,249.03125 L1161.73214,249.03125 L1161.73214,251.321429 L1155.625,251.321429 L1155.625,253.290179 L1161.57143,253.290179 L1161.57143,255.5 L1155.625,255.5 L1155.625,257.669643 L1161.73214,257.669643 Z M1215.57143,280.129464 L1215.57143,289.330357 C1215.57143,290.803579 1215.05581,292.069191 1214.02455,293.127232 C1212.9933,294.185273 1211.74108,294.714286 1210.26786,294.714286 L1128.30357,294.714286 C1126.83035,294.714286 1125.57813,294.185273 1124.54688,293.127232 C1123.51562,292.069191 1123,290.803579 1123,289.330357 L1123,262.089286 L1127.45982,262.089286 L1128.46429,259.638393 L1130.67411,259.638393 L1131.67857,262.089286 L1140.4375,262.089286 L1140.4375,260.241071 L1141.20089,262.089286 L1145.74107,262.089286 L1146.54464,260.200893 L1146.54464,262.089286 L1168.28125,262.089286 L1168.28125,258.111607 L1168.68304,258.071429 C1168.95089,258.071429 1169.08482,258.258927 1169.08482,258.633929 L1169.08482,262.089286 L1180.29464,262.089286 L1180.29464,261.165179 C1180.91072,261.486609 1181.64732,261.727678 1182.50446,261.888393 C1183.36161,262.049108 1184.06473,262.136161 1184.61384,262.149554 C1185.16295,262.162946 1186.00669,262.15625 1187.14509,262.129464 C1188.28349,262.102678 1188.97321,262.089286 1189.21429,262.089286 L1190.21875,259.638393 L1192.46875,259.638393 L1193.47321,262.089286 L1202.59375,262.089286 L1202.59375,259.758929 L1203.95982,262.089286 L1211.27232,262.089286 L1211.27232,246.901786 L1204.04018,246.901786 L1204.04018,248.669643 L1203.03571,246.901786 L1195.60268,246.901786 L1195.60268,248.669643 L1194.67857,246.901786 L1184.67411,246.901786 C1182.82588,246.901786 1181.36608,247.196426 1180.29464,247.785714 L1180.29464,246.901786 L1173.38393,246.901786 L1173.38393,247.785714 C1172.74107,247.196426 1171.7634,246.901786 1170.45089,246.901786 L1145.21875,246.901786 L1143.49107,250.799107 L1141.76339,246.901786 L1133.80804,246.901786 L1133.80804,248.669643 L1132.92411,246.901786 L1126.13393,246.901786 L1123,254.09375 L1123,238.383929 C1123,236.910707 1123.51562,235.645095 1124.54688,234.587054 C1125.57813,233.529013 1126.83035,233 1128.30357,233 L1210.26786,233 C1211.74108,233 1212.9933,233.529013 1214.02455,234.587054 C1215.05581,235.645095 1215.57143,236.910707 1215.57143,238.383929 L1215.57143,265.625 L1210.75,265.625 C1209.38392,265.625 1208.29911,265.91964 1207.49554,266.508929 L1207.49554,265.625 L1200.38393,265.625 C1198.91071,265.625 1197.86607,265.91964 1197.25,266.508929 L1197.25,265.625 L1184.55357,265.625 L1184.55357,266.508929 C1183.72321,265.91964 1182.55804,265.625 1181.05804,265.625 L1172.66071,265.625 L1172.66071,266.508929 C1172.04464,265.91964 1170.8259,265.625 1169.00446,265.625 L1159.60268,265.625 L1157.43304,267.955357 L1155.42411,265.625 L1141.40179,265.625 L1141.40179,280.8125 L1155.18304,280.8125 L1157.39286,278.441964 L1159.48214,280.8125 L1167.95982,280.8125 L1167.95982,277.236607 L1168.80357,277.236607 C1170.38394,277.236607 1171.58928,277.062502 1172.41964,276.714286 L1172.41964,280.8125 L1179.41071,280.8125 L1179.41071,276.834821 L1179.73214,276.834821 C1179.94643,276.834821 1180.08036,276.861607 1180.13393,276.915179 C1180.1875,276.96875 1180.21429,277.102678 1180.21429,277.316964 L1180.21429,280.8125 L1201.46875,280.8125 C1202.99554,280.8125 1204.1741,280.491075 1205.00446,279.848214 L1205.00446,280.8125 L1211.75446,280.8125 C1213.36162,280.8125 1214.63392,280.584824 1215.57143,280.129464 Z M1185.11607,270.727679 C1185.11607,271.343753 1184.95536,271.91964 1184.63393,272.455357 C1184.3125,272.991074 1183.85715,273.379463 1183.26786,273.620536 C1183.9375,273.861608 1184.39286,274.209819 1184.63393,274.665179 C1184.875,275.120538 1184.99554,275.736603 1184.99554,276.513393 L1184.99554,278.683036 L1182.38393,278.683036 L1182.38393,276.875 C1182.38393,275.991067 1182.22322,275.408484 1181.90179,275.127232 C1181.58036,274.845981 1180.96429,274.705357 1180.05357,274.705357 L1177.28125,274.705357 L1177.28125,278.683036 L1174.66964,278.683036 L1174.66964,267.794643 L1180.85714,267.794643 C1182.14286,267.794643 1183.1741,267.995534 1183.95089,268.397321 C1184.72768,268.799109 1185.11607,269.575887 1185.11607,270.727679 Z M1173.98661,251.964286 C1173.98661,252.607146 1173.8192,253.196426 1173.48438,253.732143 C1173.14955,254.26786 1172.7009,254.656249 1172.13839,254.897321 C1172.83482,255.138394 1173.29687,255.479909 1173.52455,255.921875 C1173.75223,256.363841 1173.86607,256.986603 1173.86607,257.790179 L1173.86607,259.919643 L1171.25446,259.919643 C1171.25446,259.67857 1171.26116,259.323663 1171.27455,258.854911 C1171.28795,258.386158 1171.28795,258.05134 1171.27455,257.850446 C1171.26116,257.649553 1171.22098,257.401787 1171.15402,257.107143 C1171.08705,256.812499 1170.97322,256.598215 1170.8125,256.464286 C1170.65178,256.330356 1170.41741,256.216518 1170.10938,256.122768 C1169.80134,256.029017 1169.40625,255.982143 1168.92411,255.982143 L1166.11161,255.982143 L1166.11161,259.919643 L1163.54018,259.919643 L1163.54018,249.03125 L1169.6875,249.071429 C1171.00001,249.071429 1172.04464,249.265623 1172.82143,249.654018 C1173.59822,250.042413 1173.98661,250.812494 1173.98661,251.964286 Z M1195.24107,276.433036 L1195.24107,278.683036 L1186.5625,278.683036 L1186.5625,267.794643 L1195.24107,267.794643 L1195.24107,270.044643 L1189.17411,270.044643 L1189.17411,272.013393 L1195.12054,272.013393 L1195.12054,274.223214 L1189.17411,274.223214 L1189.17411,276.392857 L1195.24107,276.433036 Z M1178.125,249.03125 L1178.125,259.919643 L1175.47321,259.919643 L1175.47321,249.03125 L1178.125,249.03125 Z M1205.96875,275.227679 C1205.96875,277.531262 1204.60269,278.683036 1201.87054,278.683036 L1196.80804,278.683036 L1196.80804,276.352679 L1201.87054,276.352679 C1202.78125,276.352679 1203.23661,276.01786 1203.23661,275.348214 C1203.23661,274.919641 1203.00893,274.638394 1202.55357,274.504464 C1202.09821,274.370535 1201.54241,274.303571 1200.88616,274.303571 C1200.22991,274.303571 1199.56697,274.256697 1198.89732,274.162946 C1198.22768,274.069196 1197.66518,273.76786 1197.20982,273.258929 C1196.75446,272.749997 1196.52679,272.013398 1196.52679,271.049107 C1196.52679,270.004459 1196.875,269.200896 1197.57143,268.638393 C1198.26786,268.07589 1199.15178,267.794643 1200.22321,267.794643 L1205.44643,267.794643 L1205.44643,270.084821 L1200.66518,270.084821 C1199.70089,270.084821 1199.21875,270.41964 1199.21875,271.089286 C1199.21875,271.517859 1199.45312,271.79241 1199.92188,271.912946 C1200.39063,272.033483 1200.95312,272.087054 1201.60938,272.073661 C1202.26563,272.060268 1202.92187,272.09375 1203.57812,272.174107 C1204.23438,272.254465 1204.79687,272.542408 1205.26562,273.037946 C1205.73438,273.533485 1205.96875,274.263388 1205.96875,275.227679 Z M1215.57143,273.21875 L1215.57143,277.276786 C1214.92857,278.21429 1213.75001,278.683036 1212.03571,278.683036 L1207.01339,278.683036 L1207.01339,276.352679 L1212.03571,276.352679 C1212.91965,276.352679 1213.36161,276.01786 1213.36161,275.348214 C1213.36161,274.999998 1213.1942,274.745537 1212.85938,274.584821 C1212.52455,274.424106 1212.10938,274.350446 1211.61384,274.363839 C1211.1183,274.377232 1210.58259,274.350447 1210.0067,274.283482 C1209.4308,274.216518 1208.89509,274.109376 1208.39955,273.962054 C1207.90402,273.814731 1207.48884,273.493306 1207.15402,272.997768 C1206.81919,272.50223 1206.65179,271.852683 1206.65179,271.049107 C1206.65179,270.004459 1207.00669,269.200896 1207.71652,268.638393 C1208.42634,268.07589 1209.31696,267.794643 1210.38839,267.794643 L1215.57143,267.794643 L1215.57143,270.084821 L1210.83036,270.084821 C1209.86607,270.084821 1209.38393,270.41964 1209.38393,271.089286 C1209.38393,271.625003 1209.77232,271.919643 1210.54911,271.973214 C1211.3259,272.026786 1212.2433,272.09375 1213.30134,272.174107 C1214.35938,272.254465 1215.11607,272.602675 1215.57143,273.21875 Z M1208.94196,249.071429 L1208.94196,259.919643 L1205.24554,259.919643 L1200.34375,251.763393 L1200.34375,259.919643 L1195.04018,259.919643 L1193.99554,257.508929 L1188.61161,257.508929 L1187.60714,259.919643 L1184.59375,259.919643 C1181.13838,259.919643 1179.41071,258.138411 1179.41071,254.575893 C1179.41071,250.879446 1181.19195,249.03125 1184.75446,249.03125 L1187.28571,249.03125 L1187.28571,251.401786 C1187.09821,251.401786 1186.72322,251.388393 1186.16071,251.361607 C1185.59821,251.334821 1185.21652,251.328125 1185.01562,251.341518 C1184.81473,251.354911 1184.5067,251.381696 1184.09152,251.421875 C1183.67634,251.462054 1183.38839,251.549106 1183.22768,251.683036 C1183.06696,251.816965 1182.87277,251.997767 1182.64509,252.225446 C1182.41741,252.453126 1182.26339,252.761159 1182.18304,253.149554 C1182.10268,253.537948 1182.0625,253.986605 1182.0625,254.495536 C1182.0625,255.513398 1182.2433,256.290176 1182.60491,256.825893 C1182.96652,257.36161 1183.62946,257.629464 1184.59375,257.629464 L1185.75893,257.629464 L1189.45536,249.071429 L1193.35268,249.071429 L1197.73214,259.357143 L1197.73214,249.071429 L1201.70982,249.071429 L1206.29018,256.625 L1206.29018,249.071429 L1208.94196,249.071429 Z" id="" fill="#FFFFFF" fill-rule="nonzero"></path>
            <path d="M1326.91183,259.815848 C1326.91183,258.141733 1326.58538,256.60994 1325.93248,255.220424 C1325.27957,253.830908 1324.46764,252.684156 1323.49665,251.780134 C1322.52566,250.876112 1321.30358,250.055807 1319.83036,249.319196 C1318.35714,248.582586 1316.97601,248.013395 1315.68694,247.611607 C1314.39787,247.209819 1312.93304,246.824779 1311.29241,246.456473 L1306.0692,245.251116 C1305.06473,245.01674 1304.32813,244.84096 1303.85937,244.723772 C1303.39062,244.606584 1302.80469,244.414064 1302.10156,244.146205 C1301.39843,243.878347 1300.89621,243.610492 1300.59487,243.342634 C1300.29353,243.074775 1300.0173,242.723216 1299.76618,242.287946 C1299.51507,241.852676 1299.38951,241.350449 1299.38951,240.78125 C1299.38951,238.203112 1301.8002,236.914062 1306.62165,236.914062 C1308.06139,236.914062 1309.35044,237.114953 1310.48884,237.516741 C1311.62724,237.918529 1312.53125,238.395645 1313.20089,238.948103 C1313.87054,239.500561 1314.50669,240.061381 1315.10937,240.63058 C1315.71206,241.19978 1316.38169,241.685266 1317.1183,242.087054 C1317.85491,242.488841 1318.65848,242.689732 1319.52902,242.689732 C1321.10269,242.689732 1322.36662,242.154023 1323.32087,241.082589 C1324.27512,240.011155 1324.75223,238.722106 1324.75223,237.215402 C1324.75223,235.373875 1323.81474,233.708155 1321.93973,232.218192 C1320.06472,230.728229 1317.68751,229.598218 1314.80804,228.828125 C1311.92856,228.058032 1308.88171,227.672991 1305.66741,227.672991 C1303.39061,227.672991 1301.18081,227.932475 1299.03795,228.451451 C1296.89508,228.970427 1294.89454,229.757249 1293.03627,230.811942 C1291.178,231.866635 1289.68806,233.323093 1288.56641,235.181362 C1287.44475,237.03963 1286.88393,239.190836 1286.88393,241.635045 C1286.88393,243.677466 1287.20201,245.460372 1287.83817,246.983817 C1288.47433,248.507262 1289.41182,249.7712 1290.65067,250.77567 C1291.88952,251.780139 1293.22879,252.592073 1294.66853,253.211496 C1296.10827,253.830918 1297.83258,254.374998 1299.84152,254.84375 L1307.17411,256.651786 C1310.18752,257.388397 1312.0625,257.991069 1312.79911,258.459821 C1313.87054,259.129468 1314.40625,260.133922 1314.40625,261.473214 C1314.40625,262.779024 1313.73661,263.858813 1312.39732,264.712612 C1311.05803,265.566411 1309.30023,265.993304 1307.12388,265.993304 C1305.41629,265.993304 1303.88449,265.725449 1302.52846,265.189732 C1301.17243,264.654015 1300.08427,264.00949 1299.26395,263.256138 C1298.44363,262.502786 1297.68192,261.749446 1296.97879,260.996094 C1296.27567,260.242742 1295.50558,259.598217 1294.66853,259.0625 C1293.83147,258.526783 1292.92746,258.258929 1291.95647,258.258929 C1290.28236,258.258929 1289.01842,258.761156 1288.16462,259.765625 C1287.31082,260.770094 1286.88393,262.025662 1286.88393,263.532366 C1286.88393,266.612739 1288.92632,269.249431 1293.01116,271.442522 C1297.096,273.635614 1301.96761,274.732143 1307.62612,274.732143 C1310.07032,274.732143 1312.41405,274.422436 1314.65737,273.803013 C1316.90068,273.183591 1318.95144,272.287952 1320.80971,271.116071 C1322.66798,269.944191 1324.14955,268.378916 1325.25446,266.420201 C1326.35938,264.461486 1326.91183,262.260057 1326.91183,259.815848 Z M1345.14286,270.714286 C1345.14286,276.037973 1343.25951,280.583128 1339.49275,284.349888 C1335.72599,288.116648 1331.18083,290 1325.85714,290 C1321.50444,290 1317.58707,288.660728 1314.10491,285.982143 C1311.52677,286.51786 1309.01564,286.785714 1306.57143,286.785714 C1301.78346,286.785714 1297.20482,285.856594 1292.83538,283.998326 C1288.46594,282.140058 1284.69923,279.628922 1281.53516,276.464844 C1278.37108,273.300765 1275.85994,269.534062 1274.00167,265.164621 C1272.14341,260.795179 1271.21429,256.216542 1271.21429,251.428571 C1271.21429,248.984363 1271.48214,246.473227 1272.01786,243.895089 C1269.33927,240.412929 1268,236.495557 1268,232.142857 C1268,226.81917 1269.88335,222.274014 1273.65011,218.507254 C1277.41687,214.740495 1281.96203,212.857143 1287.28571,212.857143 C1291.63841,212.857143 1295.55579,214.196415 1299.03795,216.875 C1301.61608,216.339283 1304.12722,216.071429 1306.57143,216.071429 C1311.3594,216.071429 1315.93804,217.000549 1320.30748,218.858817 C1324.67692,220.717085 1328.44362,223.228221 1331.6077,226.392299 C1334.77178,229.556377 1337.28291,233.323081 1339.14118,237.692522 C1340.99945,242.061964 1341.92857,246.640601 1341.92857,251.428571 C1341.92857,253.87278 1341.66072,256.383916 1341.125,258.962054 C1343.80358,262.444214 1345.14286,266.361585 1345.14286,270.714286 Z" id="" fill="#FFFFFF" fill-rule="nonzero"></path>
            <path d="M1462.28906,236.401786 C1464.36497,236.401786 1466.09765,237.079792 1467.48717,238.435826 C1468.87668,239.791859 1469.57143,241.491061 1469.57143,243.533482 C1469.57143,246.781266 1468.01452,248.957584 1464.90067,250.0625 L1456.26228,253.02567 L1459.07478,261.412946 C1459.30915,262.116075 1459.42634,262.902897 1459.42634,263.773438 C1459.42634,265.748894 1458.72322,267.456466 1457.31696,268.896205 C1455.91071,270.335945 1454.21988,271.055804 1452.24442,271.055804 C1450.67075,271.055804 1449.2394,270.603799 1447.95033,269.699777 C1446.66127,268.795754 1445.76563,267.590409 1445.26339,266.083705 L1442.50112,257.796875 L1426.93192,263.120536 L1429.6942,271.357143 C1429.96205,272.160718 1430.09598,272.947541 1430.09598,273.717634 C1430.09598,275.69309 1429.39286,277.400662 1427.98661,278.840402 C1426.58035,280.280141 1424.87278,281 1422.86384,281 C1421.29017,281 1419.86719,280.547996 1418.59487,279.643973 C1417.32254,278.739951 1416.43527,277.534606 1415.93304,276.027902 L1413.17076,267.841518 L1405.48661,270.503348 C1404.51562,270.804689 1403.67857,270.955357 1402.97545,270.955357 C1400.93303,270.955357 1399.23382,270.285721 1397.87779,268.946429 C1396.52176,267.607136 1395.84375,265.916305 1395.84375,263.873884 C1395.84375,262.300215 1396.30412,260.877239 1397.22489,259.604911 C1398.14565,258.332583 1399.34263,257.445315 1400.81585,256.94308 L1408.65067,254.28125 L1403.37723,238.561384 L1395.54241,241.273438 C1394.67187,241.541296 1393.86831,241.675223 1393.1317,241.675223 C1391.12276,241.675223 1389.43193,240.997217 1388.05915,239.641183 C1386.68638,238.285149 1386,236.602689 1386,234.59375 C1386,233.020081 1386.46037,231.597105 1387.38114,230.324777 C1388.3019,229.052449 1389.49888,228.165181 1390.9721,227.662946 L1398.85714,225.001116 L1396.19531,217.015625 C1395.92745,216.21205 1395.79353,215.425227 1395.79353,214.655134 C1395.79353,212.646195 1396.49664,210.930253 1397.9029,209.507254 C1399.30916,208.084256 1401.01673,207.372768 1403.02567,207.372768 C1404.59934,207.372768 1406.02232,207.824772 1407.29464,208.728795 C1408.56697,209.632817 1409.45424,210.838162 1409.95647,212.344866 L1412.66853,220.38058 L1428.23772,215.107143 L1425.52567,207.071429 C1425.25781,206.267853 1425.12388,205.481031 1425.12388,204.710938 C1425.12388,202.735481 1425.83537,201.027909 1427.25837,199.58817 C1428.68137,198.14843 1430.38057,197.428571 1432.35603,197.428571 C1433.9297,197.428571 1435.36104,197.888946 1436.65011,198.80971 C1437.93918,199.730473 1438.83482,200.927448 1439.33705,202.40067 L1441.99888,210.486607 L1450.13504,207.72433 C1450.83817,207.523436 1451.55803,207.422991 1452.29464,207.422991 C1454.30358,207.422991 1456.01952,208.084257 1457.44252,209.406808 C1458.86552,210.729359 1459.57701,212.378338 1459.57701,214.353795 C1459.57701,215.860499 1459.07478,217.224882 1458.07031,218.446987 C1457.06584,219.669091 1455.82702,220.531247 1454.35379,221.033482 L1446.46875,223.745536 L1451.74219,239.616071 L1459.97879,236.803571 C1460.78237,236.535713 1461.55245,236.401786 1462.28906,236.401786 Z M1422.41183,249.560268 L1437.98103,244.28683 L1432.70759,228.466518 L1417.13839,233.840402 L1422.41183,249.560268 Z" id="" fill="#FFFFFF" fill-rule="nonzero"></path>
            <path d="M1197.28571,391.084821 C1197.28571,390.348211 1196.91741,389.896206 1196.1808,389.728795 C1193.93749,389.260042 1191.96206,388.28907 1190.25446,386.815848 C1188.54687,385.342627 1187.20759,383.517868 1186.23661,381.341518 C1186.00223,380.872766 1185.88504,380.454243 1185.88504,380.085937 C1185.88504,379.583703 1186.21149,379.148439 1186.8644,378.780134 C1187.5173,378.411829 1188.22879,378.127233 1188.99888,377.926339 C1189.76898,377.725445 1190.48047,377.382257 1191.13337,376.896763 C1191.78628,376.41127 1192.11272,375.800227 1192.11272,375.063616 C1192.11272,374.427452 1191.80302,373.900114 1191.18359,373.481585 C1190.56417,373.063056 1189.91965,372.853795 1189.25,372.853795 C1188.88169,372.853795 1188.36273,372.987722 1187.69308,373.25558 C1187.02343,373.523439 1186.48773,373.657366 1186.08594,373.657366 C1185.95201,373.657366 1185.75112,373.623884 1185.48326,373.55692 C1185.65067,371.447534 1185.73437,369.52233 1185.73437,367.78125 C1185.73437,365.16963 1185.44978,363.261167 1184.88058,362.055804 C1183.67522,359.444183 1181.95927,357.410164 1179.7327,355.953683 C1177.50613,354.497203 1174.95314,353.768973 1172.07366,353.768973 C1165.44416,353.768973 1160.84041,356.531222 1158.26228,362.055804 C1157.6596,363.328131 1157.35826,365.253335 1157.35826,367.831473 C1157.35826,369.103801 1157.4587,371.012264 1157.6596,373.55692 C1157.32478,373.623884 1157.07366,373.657366 1156.90625,373.657366 C1156.53794,373.657366 1156.01061,373.523439 1155.32422,373.25558 C1154.63783,372.987722 1154.12723,372.853795 1153.79241,372.853795 C1153.12276,372.853795 1152.49498,373.063056 1151.90904,373.481585 C1151.3231,373.900114 1151.03013,374.444193 1151.03013,375.113839 C1151.03013,375.816968 1151.35658,376.41127 1152.00949,376.896763 C1152.66239,377.382257 1153.37388,377.725445 1154.14397,377.926339 C1154.91407,378.127233 1155.62555,378.411829 1156.27846,378.780134 C1156.93136,379.148439 1157.25781,379.583703 1157.25781,380.085937 C1157.25781,380.454243 1157.14063,380.872766 1156.90625,381.341518 C1154.76338,385.962077 1151.44868,388.757808 1146.96205,389.728795 C1146.22544,389.896206 1145.85714,390.348211 1145.85714,391.084821 C1145.85714,392.65849 1148.16739,393.813612 1152.78795,394.550223 C1152.85491,394.717635 1152.95536,395.152898 1153.08929,395.856027 C1153.22321,396.559155 1153.40736,397.069753 1153.64174,397.387835 C1153.87612,397.705917 1154.26116,397.864955 1154.79687,397.864955 C1155.23215,397.864955 1155.87667,397.781251 1156.73047,397.613839 C1157.58427,397.446428 1158.22879,397.362723 1158.66406,397.362723 C1159.83594,397.362723 1160.96595,397.613837 1162.05413,398.116071 C1163.1423,398.618306 1164.05468,399.162385 1164.79129,399.748326 C1165.52791,400.334266 1166.49051,400.878346 1167.67913,401.38058 C1168.86775,401.882815 1170.14843,402.133929 1171.52121,402.133929 C1172.96094,402.133929 1174.28348,401.882815 1175.48884,401.38058 C1176.6942,400.878346 1177.6568,400.334266 1178.37667,399.748326 C1179.09654,399.162385 1180.00055,398.618306 1181.08873,398.116071 C1182.1769,397.613837 1183.30691,397.362723 1184.47879,397.362723 C1184.91406,397.362723 1185.56696,397.438057 1186.4375,397.588728 C1187.30804,397.739398 1187.96094,397.814732 1188.39621,397.814732 C1188.89844,397.814732 1189.27511,397.655694 1189.52623,397.337612 C1189.77735,397.01953 1189.96987,396.500562 1190.10379,395.780692 C1190.23772,395.060822 1190.32143,394.65067 1190.35491,394.550223 C1194.97547,393.813612 1197.28571,392.65849 1197.28571,391.084821 Z M1210.14286,354.321429 L1210.14286,402.535714 C1210.14286,406.520109 1208.72825,409.926883 1205.899,412.756138 C1203.06974,415.585394 1199.66297,417 1195.67857,417 L1147.46429,417 C1143.47989,417 1140.07312,415.585394 1137.24386,412.756138 C1134.41461,409.926883 1133,406.520109 1133,402.535714 L1133,354.321429 C1133,350.337034 1134.41461,346.93026 1137.24386,344.101004 C1140.07312,341.271749 1143.47989,339.857143 1147.46429,339.857143 L1195.67857,339.857143 C1199.66297,339.857143 1203.06974,341.271749 1205.899,344.101004 C1208.72825,346.93026 1210.14286,350.337034 1210.14286,354.321429 Z" id="" fill="#FFFFFF" fill-rule="nonzero"></path>
            <path d="M1303.25223,366.953125 L1303.25223,399.648437 L1269,394.927455 L1269,366.953125 L1303.25223,366.953125 Z M1303.25223,329.637277 L1303.25223,362.734375 L1269,362.734375 L1269,334.358259 L1303.25223,329.637277 Z M1352.57143,366.953125 L1352.57143,406.428571 L1307.01897,400.15067 L1307.01897,366.953125 L1352.57143,366.953125 Z M1352.57143,322.857143 L1352.57143,362.734375 L1307.01897,362.734375 L1307.01897,329.135045 L1352.57143,322.857143 Z" id="" fill="#FFFFFF" fill-rule="nonzero"></path>
            <path d="M1446.76674,385.90625 L1446.76674,396.503348 C1446.76674,398.746663 1446.11385,399.868304 1444.80804,399.868304 C1444.03794,399.868304 1443.2846,399.500004 1442.54799,398.763393 L1442.54799,383.646205 C1443.2846,382.909595 1444.03794,382.541295 1444.80804,382.541295 C1446.11385,382.541295 1446.76674,383.662935 1446.76674,385.90625 Z M1463.74219,385.956473 L1463.74219,388.266741 L1459.2221,388.266741 L1459.2221,385.956473 C1459.2221,383.679676 1459.97544,382.541295 1461.48214,382.541295 C1462.98885,382.541295 1463.74219,383.679676 1463.74219,385.956473 Z M1415.22656,375.007812 L1420.60045,375.007812 L1420.60045,370.28683 L1404.9308,370.28683 L1404.9308,375.007812 L1410.20424,375.007812 L1410.20424,403.584821 L1415.22656,403.584821 L1415.22656,375.007812 Z M1429.69085,403.584821 L1434.16071,403.584821 L1434.16071,378.774554 L1429.69085,378.774554 L1429.69085,397.758929 C1428.68638,399.165186 1427.73215,399.868304 1426.82812,399.868304 C1426.22544,399.868304 1425.87388,399.516745 1425.77344,398.813616 C1425.73996,398.713169 1425.72321,398.127238 1425.72321,397.055804 L1425.72321,378.774554 L1421.25335,378.774554 L1421.25335,398.41183 C1421.25335,400.052464 1421.38728,401.27455 1421.65513,402.078125 C1422.05692,403.31697 1423.02789,403.936384 1424.56808,403.936384 C1426.17523,403.936384 1427.8828,402.915189 1429.69085,400.872768 L1429.69085,403.584821 Z M1451.23661,396.151786 L1451.23661,386.257812 C1451.23661,383.813604 1451.08594,382.156254 1450.7846,381.285714 C1450.2154,379.410705 1449.02679,378.473214 1447.21875,378.473214 C1445.54463,378.473214 1443.98773,379.377223 1442.54799,381.185268 L1442.54799,370.28683 L1438.07812,370.28683 L1438.07812,403.584821 L1442.54799,403.584821 L1442.54799,401.174107 C1444.0547,403.015634 1445.6116,403.936384 1447.21875,403.936384 C1449.02679,403.936384 1450.2154,403.015634 1450.7846,401.174107 C1451.08594,400.270085 1451.23661,398.595994 1451.23661,396.151786 Z M1468.21205,395.649554 L1468.21205,394.996652 L1463.64174,394.996652 C1463.64174,396.70425 1463.60826,397.725445 1463.54129,398.060268 C1463.30692,399.265631 1462.63728,399.868304 1461.53237,399.868304 C1459.99218,399.868304 1459.2221,398.713181 1459.2221,396.402902 L1459.2221,392.033482 L1468.21205,392.033482 L1468.21205,386.860491 C1468.21205,384.215389 1467.76005,382.273444 1466.85603,381.034598 C1465.55022,379.327 1463.77568,378.473214 1461.53237,378.473214 C1459.25557,378.473214 1457.46429,379.327 1456.15848,381.034598 C1455.22098,382.273444 1454.75223,384.215389 1454.75223,386.860491 L1454.75223,395.549107 C1454.75223,398.19421 1455.23772,400.136155 1456.20871,401.375 C1457.51452,403.082598 1459.32253,403.936384 1461.63281,403.936384 C1464.04354,403.936384 1465.85156,403.049116 1467.05692,401.274554 C1467.6596,400.370531 1468.01116,399.466522 1468.11161,398.5625 C1468.17857,398.261159 1468.21205,397.290187 1468.21205,395.649554 Z M1437.67634,349.795759 L1437.67634,339.248884 C1437.67634,336.938605 1436.95648,335.783482 1435.51674,335.783482 C1434.077,335.783482 1433.35714,336.938605 1433.35714,339.248884 L1433.35714,349.795759 C1433.35714,352.139521 1434.077,353.311384 1435.51674,353.311384 C1436.95648,353.311384 1437.67634,352.139521 1437.67634,349.795759 Z M1473.78683,387.513393 C1473.78683,395.348253 1473.35157,401.20757 1472.48103,405.091518 C1472.01227,407.066974 1471.0413,408.724324 1469.56808,410.063616 C1468.09486,411.402908 1466.38729,412.17299 1464.44531,412.373884 C1458.28457,413.077012 1448.99337,413.428571 1436.57143,413.428571 C1424.14949,413.428571 1414.85829,413.077012 1408.69754,412.373884 C1406.75557,412.17299 1405.03963,411.402908 1403.54967,410.063616 C1402.0597,408.724324 1401.0971,407.066974 1400.66183,405.091518 C1399.79129,401.341499 1399.35603,395.482183 1399.35603,387.513393 C1399.35603,379.678532 1399.79129,373.819216 1400.66183,369.935268 C1401.13058,367.959812 1402.10156,366.302462 1403.57478,364.96317 C1405.048,363.623877 1406.77231,362.837055 1408.74777,362.602679 C1414.87503,361.933032 1424.14949,361.598214 1436.57143,361.598214 C1448.99337,361.598214 1458.28457,361.933032 1464.44531,362.602679 C1466.38729,362.837055 1468.10323,363.623877 1469.59319,364.96317 C1471.08315,366.302462 1472.04576,367.959812 1472.48103,369.935268 C1473.35157,373.685287 1473.78683,379.544603 1473.78683,387.513393 Z M1423.66406,323.428571 L1428.78683,323.428571 L1422.70982,343.467634 L1422.70982,357.078125 L1417.6875,357.078125 L1417.6875,343.467634 C1417.21875,340.989943 1416.19755,337.440871 1414.62388,332.820312 C1413.38504,329.371635 1412.29688,326.241085 1411.35938,323.428571 L1416.68304,323.428571 L1420.24888,336.637277 L1423.66406,323.428571 Z M1442.24665,340.152902 L1442.24665,348.941964 C1442.24665,351.654031 1441.77791,353.629458 1440.8404,354.868304 C1439.56807,356.575901 1437.79354,357.429688 1435.51674,357.429688 C1433.27343,357.429688 1431.51563,356.575901 1430.2433,354.868304 C1429.3058,353.595976 1428.83705,351.620549 1428.83705,348.941964 L1428.83705,340.152902 C1428.83705,337.474317 1429.3058,335.515631 1430.2433,334.276786 C1431.51563,332.569188 1433.27343,331.715402 1435.51674,331.715402 C1437.79354,331.715402 1439.56807,332.569188 1440.8404,334.276786 C1441.77791,335.515631 1442.24665,337.474317 1442.24665,340.152902 Z M1459.07143,332.016741 L1459.07143,357.078125 L1454.50112,357.078125 L1454.50112,354.315848 C1452.72655,356.391751 1451.00224,357.429688 1449.32812,357.429688 C1447.78794,357.429688 1446.80023,356.810274 1446.36496,355.571429 C1446.0971,354.767853 1445.96317,353.512285 1445.96317,351.804688 L1445.96317,332.016741 L1450.53348,332.016741 L1450.53348,350.448661 C1450.53348,351.553577 1450.55022,352.139509 1450.58371,352.206473 C1450.68415,352.943084 1451.03571,353.311384 1451.63839,353.311384 C1452.54242,353.311384 1453.49665,352.591525 1454.50112,351.151786 L1454.50112,332.016741 L1459.07143,332.016741 Z" id="" fill="#FFFFFF" fill-rule="nonzero"></path>
            <path d="M487.466718,211.949865 C491.937971,211.949865 495.82021,212.70745 499.113551,214.222642 C502.406893,215.737833 504.942969,217.888396 506.721854,220.674394 C508.50074,223.460391 509.390169,226.75955 509.390169,230.571968 C509.390169,234.335508 508.50074,237.622448 506.721854,240.432884 C504.942969,243.24332 502.406893,245.393883 499.113551,246.884636 C495.82021,248.375389 491.937971,249.120755 487.466718,249.120755 L477.298276,249.120755 L477.298276,263.27062 L465.615385,263.27062 L465.615385,211.949865 L487.466718,211.949865 Z" id="Path" fill="#FFFFFF" fill-rule="nonzero"></path>
            <path d="M486.817669,239.443127 C490.327362,239.443127 492.99565,238.673323 494.822613,237.133693 C496.649576,235.594062 497.563044,233.406843 497.563044,230.571968 C497.563044,227.688216 496.649576,225.476558 494.822613,223.936927 C492.99565,222.397297 490.327362,221.627493 486.817669,221.627493 L477.298276,221.627493 L477.298276,239.443127 L486.817669,239.443127 Z" id="Path" fill="#FFFFFF" fill-rule="nonzero"></path>
            <path d="M554.823635,243.695418 C554.823635,243.842049 554.751519,244.868454 554.607285,246.774663 L525.255824,246.774663 C525.784682,249.218521 527.03469,251.149139 529.005888,252.566577 C530.977085,253.984014 533.429025,254.692722 536.361782,254.692722 C538.381057,254.692722 540.171935,254.387245 541.73447,253.77628 C543.297004,253.165316 544.751342,252.200007 546.097525,250.880323 L552.083204,257.478706 C548.429277,261.731019 543.092701,263.857143 536.073316,263.857143 C531.698219,263.857143 527.828,262.989586 524.462541,261.254447 C521.097082,259.519308 518.50091,257.112145 516.673947,254.032884 C514.846983,250.953623 513.933516,247.458959 513.933516,243.548787 C513.933516,239.687492 514.834964,236.205047 516.637888,233.101348 C518.440813,229.997648 520.916792,227.578266 524.0659,225.843127 C527.215008,224.107988 530.736667,223.240431 534.630984,223.240431 C538.429144,223.240431 541.866668,224.07133 544.943659,225.733154 C548.02065,227.394977 550.436532,229.777702 552.191379,232.881402 C553.946225,235.985101 554.823635,239.589737 554.823635,243.695418 Z" id="Path" fill="#FFFFFF" fill-rule="nonzero"></path>
            <path d="M534.7031,231.891644 C532.154967,231.891644 530.015529,232.624791 528.284722,234.091105 C526.553914,235.55742 525.496214,237.561353 525.111591,240.102965 L544.222493,240.102965 C543.837869,237.61023 542.780169,235.618516 541.049362,234.127763 C539.318555,232.63701 537.203155,231.891644 534.7031,231.891644 Z" id="Path" fill="#FFFFFF" fill-rule="nonzero"></path>
            <path d="M573.069138,229.032345 C574.415322,227.126136 576.230239,225.684282 578.513943,224.706739 C580.797647,223.729195 583.429877,223.240431 586.410712,223.240431 L586.410712,233.797844 C585.160684,233.700089 584.319332,233.651213 583.88663,233.651213 C580.665406,233.651213 578.141349,234.567646 576.314386,236.400539 C574.487423,238.233432 573.573955,240.982731 573.573955,244.648518 L573.573955,263.27062 L562.323763,263.27062 L562.323763,223.826954 L573.069138,223.826954 L573.069138,229.032345 Z" id="Path" fill="#FFFFFF" fill-rule="nonzero"></path>
            <path d="M606.314897,263.857143 C603.093672,263.857143 599.944612,263.453912 596.867621,262.647439 C593.79063,261.840966 591.33869,260.826781 589.511726,259.604852 L593.26179,251.393531 C594.992597,252.517706 597.083958,253.434138 599.535935,254.142857 C601.987913,254.851576 604.391776,255.20593 606.747597,255.20593 C611.507317,255.20593 613.887141,254.008458 613.887141,251.613477 C613.887141,250.489303 613.238098,249.682842 611.939993,249.19407 C610.641887,248.705299 608.646681,248.289849 605.954314,247.947709 C602.781167,247.458937 600.160956,246.896859 598.093603,246.261456 C596.02625,245.626053 594.235372,244.501895 592.720915,242.888949 C591.206459,241.276003 590.449242,238.978811 590.449242,235.997305 C590.449242,233.50457 591.158382,231.292912 592.576682,229.362264 C593.994983,227.431617 596.062305,225.928667 598.778711,224.853369 C601.495117,223.778072 604.704274,223.240431 608.406279,223.240431 C611.146724,223.240431 613.875108,223.545909 616.591514,224.156873 C619.30792,224.767838 621.555532,225.610956 623.334418,226.686253 L619.584354,234.824259 C616.170817,232.869173 612.444829,231.891644 608.406279,231.891644 C606.00238,231.891644 604.199482,232.233779 602.997533,232.918059 C601.795583,233.602339 601.194618,234.482115 601.194618,235.557412 C601.194618,236.779341 601.843661,237.634679 603.141766,238.12345 C604.439872,238.612222 606.507194,239.076548 609.343795,239.516442 C612.516942,240.054091 615.113114,240.628389 617.132389,241.239353 C619.151664,241.850318 620.906484,242.962256 622.396902,244.575202 C623.887319,246.188148 624.632517,248.436464 624.632517,251.320216 C624.632517,253.764073 623.911358,255.939074 622.469018,257.845283 C621.026679,259.751492 618.923299,261.230004 616.158815,262.280863 C613.394331,263.331721 610.113058,263.857143 606.314897,263.857143 Z" id="Path" fill="#FFFFFF" fill-rule="nonzero"></path>
            <path d="M650.017565,263.857143 C645.930936,263.857143 642.265045,262.989586 639.019781,261.254447 C635.774517,259.519308 633.238442,257.112145 631.411479,254.032884 C629.584515,250.953623 628.671047,247.458959 628.671047,243.548787 C628.671047,239.638615 629.584515,236.143951 631.411479,233.06469 C633.238442,229.985429 635.774517,227.578266 639.019781,225.843127 C642.265045,224.107988 645.930936,223.240431 650.017565,223.240431 C654.104193,223.240431 657.758065,224.107988 660.97929,225.843127 C664.200515,227.578266 666.724571,229.985429 668.551534,233.06469 C670.378498,236.143951 671.291966,239.638615 671.291966,243.548787 C671.291966,247.458959 670.378498,250.953623 668.551534,254.032884 C666.724571,257.112145 664.200515,259.519308 660.97929,261.254447 C657.758065,262.989586 654.104193,263.857143 650.017565,263.857143 Z" id="Path" fill="#FFFFFF" fill-rule="nonzero"></path>
            <path d="M650.017565,254.472776 C652.902244,254.472776 655.270049,253.483029 657.121051,251.503504 C658.972053,249.523979 659.897541,246.872434 659.897541,243.548787 C659.897541,240.225141 658.972053,237.573595 657.121051,235.59407 C655.270049,233.614545 652.902244,232.624798 650.017565,232.624798 C647.132886,232.624798 644.753061,233.614545 642.87802,235.59407 C641.002979,237.573595 640.065472,240.225141 640.065472,243.548787 C640.065472,246.872434 641.002979,249.523979 642.87802,251.503504 C644.753061,253.483029 647.132886,254.472776 650.017565,254.472776 Z" id="Path" fill="#FFFFFF" fill-rule="nonzero"></path>
            <path d="M702.374226,223.240431 C707.182024,223.240431 711.064263,224.706724 714.021059,227.639353 C716.977855,230.571982 718.456231,234.921984 718.456231,240.689488 L718.456231,263.27062 L707.206039,263.27062 L707.206039,242.449057 C707.206039,239.320919 706.532957,236.98707 705.186774,235.447439 C703.84059,233.907809 701.893461,233.138005 699.345328,233.138005 C696.508727,233.138005 694.249096,234.03 692.566367,235.814016 C690.883637,237.598032 690.042285,240.249578 690.042285,243.768733 L690.042285,263.27062 L678.792093,263.27062 L678.792093,223.826954 L689.537469,223.826954 L689.537469,228.445822 C691.027886,226.783999 692.878861,225.500993 695.090448,224.596765 C697.302035,223.692538 699.729937,223.240431 702.374226,223.240431 Z" id="Path" fill="#FFFFFF" fill-rule="nonzero"></path>
            <path d="M744.273978,223.240431 C750.283726,223.240431 754.899143,224.694505 758.120368,227.602695 C761.341593,230.510886 762.952181,234.897545 762.952181,240.762803 L762.952181,263.27062 L752.423156,263.27062 L752.423156,258.358491 C750.307724,262.024277 746.365389,263.857143 740.596031,263.857143 C737.615196,263.857143 735.031043,263.34394 732.843495,262.31752 C730.655947,261.2911 728.985262,259.873684 727.83139,258.065229 C726.677519,256.256774 726.100592,254.203965 726.100592,251.906739 C726.100592,248.240952 727.458774,245.357243 730.17518,243.255526 C732.891586,241.153808 737.086327,240.102965 742.759529,240.102965 L751.701989,240.102965 C751.701989,237.61023 750.956792,235.691831 749.466374,234.347709 C747.975957,233.003587 745.740364,232.331536 742.759529,232.331536 C740.692176,232.331536 738.660912,232.661452 736.665676,233.321294 C734.670439,233.981135 732.975716,234.87313 731.581454,235.997305 L727.542924,228.00593 C729.658355,226.490738 732.194431,225.317704 735.151227,224.486792 C738.108023,223.655881 741.148909,223.240431 744.273978,223.240431 Z" id="Path" fill="#FFFFFF" fill-rule="nonzero"></path>
            <path d="M743.408579,256.15903 C745.331698,256.15903 747.038441,255.706923 748.528858,254.802695 C750.019276,253.898468 751.076976,252.566586 751.701989,250.807008 L751.701989,246.774663 L743.985512,246.774663 C739.370025,246.774663 737.062317,248.31427 737.062317,251.393531 C737.062317,252.859846 737.627225,254.020661 738.757057,254.876011 C739.88689,255.731361 741.437382,256.15903 743.408579,256.15903 Z" id="Path" fill="#FFFFFF" fill-rule="nonzero"></path>
            <polygon id="Path" fill="#FFFFFF" fill-rule="nonzero" points="773.120624 208.87062 784.370815 208.87062 784.370815 263.27062 773.120624 263.27062"></polygon>
            <path d="M834.347628,208.87062 L834.347628,263.27062 L823.602253,263.27062 L823.602253,258.725067 C820.81373,262.146468 816.77524,263.857143 811.486662,263.857143 C807.832735,263.857143 804.527423,263.026244 801.570627,261.36442 C798.613832,259.702597 796.294104,257.332091 794.611374,254.25283 C792.928645,251.17357 792.087293,247.605591 792.087293,243.548787 C792.087293,239.491983 792.928645,235.924005 794.611374,232.844744 C796.294104,229.765483 798.613832,227.394977 801.570627,225.733154 C804.527423,224.07133 807.832735,223.240431 811.486662,223.240431 C816.438694,223.240431 820.308914,224.828915 823.097437,228.00593 L823.097437,208.87062 L834.347628,208.87062 Z" id="Path" fill="#FFFFFF" fill-rule="nonzero"></path>
            <path d="M813.43381,254.472776 C816.270411,254.472776 818.626197,253.483029 820.501238,251.503504 C822.37628,249.523979 823.313786,246.872434 823.313786,243.548787 C823.313786,240.225141 822.37628,237.573595 820.501238,235.59407 C818.626197,233.614545 816.270411,232.624798 813.43381,232.624798 C810.549131,232.624798 808.169307,233.614545 806.294266,235.59407 C804.419224,237.573595 803.481718,240.225141 803.481718,243.548787 C803.481718,246.872434 804.419224,249.523979 806.294266,251.503504 C808.169307,253.483029 810.549131,254.472776 813.43381,254.472776 Z" id="Path" fill="#FFFFFF" fill-rule="nonzero"></path>
            <path d="M860.381726,223.240431 C866.391473,223.240431 871.006891,224.694505 874.228115,227.602695 C877.44934,230.510886 879.059928,234.897545 879.059928,240.762803 L879.059928,263.27062 L868.530903,263.27062 L868.530903,258.358491 C866.415472,262.024277 862.473136,263.857143 856.703778,263.857143 C853.722943,263.857143 851.138791,263.34394 848.951242,262.31752 C846.763694,261.2911 845.093009,259.873684 843.939138,258.065229 C842.785266,256.256774 842.208339,254.203965 842.208339,251.906739 C842.208339,248.240952 843.566522,245.357243 846.282928,243.255526 C848.999334,241.153808 853.194075,240.102965 858.867277,240.102965 L867.809737,240.102965 C867.809737,237.61023 867.064539,235.691831 865.574122,234.347709 C864.083704,233.003587 861.848112,232.331536 858.867277,232.331536 C856.799923,232.331536 854.768659,232.661452 852.773423,233.321294 C850.778187,233.981135 849.083463,234.87313 847.689202,235.997305 L843.650671,228.00593 C845.766103,226.490738 848.302178,225.317704 851.258974,224.486792 C854.21577,223.655881 857.256657,223.240431 860.381726,223.240431 Z" id="Path" fill="#FFFFFF" fill-rule="nonzero"></path>
            <path d="M859.516326,256.15903 C861.439446,256.15903 863.146188,255.706923 864.636606,254.802695 C866.127023,253.898468 867.184723,252.566586 867.809737,250.807008 L867.809737,246.774663 L860.093259,246.774663 C855.477773,246.774663 853.170064,248.31427 853.170064,251.393531 C853.170064,252.859846 853.734972,254.020661 854.864805,254.876011 C855.994637,255.731361 857.545129,256.15903 859.516326,256.15903 Z" id="Path" fill="#FFFFFF" fill-rule="nonzero"></path>
            <path d="M914.252836,261.36442 C913.147042,262.195332 911.788859,262.818506 910.178247,263.233962 C908.567635,263.649418 906.872911,263.857143 905.094026,263.857143 C900.47854,263.857143 896.908803,262.659671 894.384709,260.26469 C891.860615,257.869709 890.598587,254.350607 890.598587,249.707278 L890.598587,233.504582 L884.612908,233.504582 L884.612908,224.706739 L890.598587,224.706739 L890.598587,215.102426 L901.848778,215.102426 L901.848778,224.706739 L911.512404,224.706739 L911.512404,233.504582 L901.848778,233.504582 L901.848778,249.560647 C901.848778,251.22247 902.269454,252.505476 903.110819,253.409704 C903.952184,254.313931 905.142096,254.766038 906.680591,254.766038 C908.459477,254.766038 909.97391,254.277274 911.223938,253.29973 L914.252836,261.36442 Z" id="Path" fill="#FFFFFF" fill-rule="nonzero"></path>
            <path d="M936.248403,223.240431 C942.258151,223.240431 946.873568,224.694505 950.094793,227.602695 C953.316017,230.510886 954.926606,234.897545 954.926606,240.762803 L954.926606,263.27062 L944.39758,263.27062 L944.39758,258.358491 C942.282149,262.024277 938.339813,263.857143 932.570455,263.857143 C929.589621,263.857143 927.005468,263.34394 924.81792,262.31752 C922.630371,261.2911 920.959687,259.873684 919.805815,258.065229 C918.651943,256.256774 918.075016,254.203965 918.075016,251.906739 C918.075016,248.240952 919.433199,245.357243 922.149605,243.255526 C924.866011,241.153808 929.060752,240.102965 934.733954,240.102965 L943.676414,240.102965 C943.676414,237.61023 942.931216,235.691831 941.440799,234.347709 C939.950381,233.003587 937.714789,232.331536 934.733954,232.331536 C932.666601,232.331536 930.635336,232.661452 928.6401,233.321294 C926.644864,233.981135 924.95014,234.87313 923.555879,235.997305 L919.517348,228.00593 C921.63278,226.490738 924.168855,225.317704 927.125651,224.486792 C930.082447,223.655881 933.123334,223.240431 936.248403,223.240431 Z" id="Path" fill="#FFFFFF" fill-rule="nonzero"></path>
            <path d="M935.383003,256.15903 C937.306123,256.15903 939.012865,255.706923 940.503283,254.802695 C941.9937,253.898468 943.0514,252.566586 943.676414,250.807008 L943.676414,246.774663 L935.959936,246.774663 C931.34445,246.774663 929.036741,248.31427 929.036741,251.393531 C929.036741,252.859846 929.601649,254.020661 930.731482,254.876011 C931.861314,255.731361 933.411806,256.15903 935.383003,256.15903 Z" id="Path" fill="#FFFFFF" fill-rule="nonzero"></path>
            <path d="M969.349928,263.857143 C967.378731,263.857143 965.720065,263.172873 964.373882,261.804313 C963.027698,260.435752 962.354617,258.725078 962.354617,256.672237 C962.354617,254.57052 963.027698,252.872064 964.373882,251.576819 C965.720065,250.281575 967.378731,249.633962 969.349928,249.633962 C971.321126,249.633962 972.979791,250.281575 974.325975,251.576819 C975.672158,252.872064 976.34524,254.57052 976.34524,256.672237 C976.34524,258.725078 975.672158,260.435752 974.325975,261.804313 C972.979791,263.172873 971.321126,263.857143 969.349928,263.857143 Z" id="Path" fill="#FFFFFF" fill-rule="nonzero"></path>
            <path d="M996.033075,224.706739 L1005.98517,224.706739 L1005.98517,233.504582 L996.321542,233.504582 L996.321542,263.27062 L985.07135,263.27062 L985.07135,233.504582 L979.085671,233.504582 L979.085671,224.706739 L985.07135,224.706739 L985.07135,222.94717 C985.07135,218.450472 986.381455,214.882493 989.001705,212.243127 C991.621955,209.60376 995.311885,208.284097 1000.07161,208.284097 C1001.75433,208.284097 1003.3529,208.467384 1004.86736,208.833962 C1006.38182,209.200541 1007.64384,209.725962 1008.65348,210.410243 L1005.6967,218.694879 C1004.3986,217.766213 1002.88416,217.301887 1001.15335,217.301887 C997.739818,217.301887 996.033075,219.208067 996.033075,223.020485 L996.033075,224.706739 Z" id="Path" fill="#FFFFFF" fill-rule="nonzero"></path>
            <polygon id="Path" fill="#FFFFFF" fill-rule="nonzero" points="1017.37959 223.826954 1028.62978 223.826954 1028.62978 263.27062 1017.37959 263.27062"></polygon>
            <path d="M1023.00469,218.328302 C1020.93734,218.328302 1019.25463,217.717347 1017.95653,216.495418 C1016.65842,215.273489 1016.00938,213.75832 1016.00938,211.949865 C1016.00938,210.141411 1016.65842,208.626242 1017.95653,207.404313 C1019.25463,206.182384 1020.93734,205.571429 1023.00469,205.571429 C1025.07204,205.571429 1026.75475,206.157946 1028.05285,207.330997 C1029.35096,208.504049 1030,209.970342 1030,211.729919 C1030,213.636128 1029.35096,215.212393 1028.05285,216.45876 C1026.75475,217.705128 1025.07204,218.328302 1023.00469,218.328302 Z" id="Path" fill="#FFFFFF" fill-rule="nonzero"></path>
            <g id="Group-3" transform="translate(363.000000, 181.571429)">
                <mask id="mask-2" fill="white">
                    <use xlink:href="#path-1"></use>
                </mask>
                <g id="Clip-2"></g>
                <path d="M46.022322,41.7272002 C46.022322,35.6013575 46.0939695,30.1178888 46.0057081,24.6376698 C45.8655281,15.7874249 39.6166177,8.58157073 31.2598162,7.49180985 C22.8303289,6.39229963 14.3883811,11.4868776 12.8142122,19.9774797 C11.5453241,26.8258577 12.0094755,34.0295454 11.6688901,41.9016053 C23.5104612,34.4877649 34.5369118,34.4790988 46.022322,41.7272002 M1.10302609,67.2408689 C1.10302609,53.6528478 5.01086193,52.0115225 5.01086193,38.1751864 C5.01086193,33.9016849 4.99009453,29.6282547 5.01293867,25.3558721 C5.03993629,20.368537 6.19668043,15.045391 9.97842384,9.91289888 C14.3624218,3.96037799 20.3911978,1.85776779 23.0431947,1.15256468 C25.2538844,0.56543705 28.3908,0.0801359839 32.0458623,0.566520311 C33.5369616,0.764757131 41.7338541,2.00509133 47.4126994,9.08745376 C52.5194029,15.455947 52.9783624,23.1037718 52.9794008,26.7424466 C52.9825159,33.3254255 52.9794008,32.9514176 52.9794008,39.5349733 C52.9794008,49.3840194 58.1487179,51.6097875 57.9521545,66.5490498 C57.7652922,80.7510078 47.4126994,95.9931755 30.4062761,95.9931755 C13.3998529,95.9931755 1.10302609,82.2955561 1.10302609,67.2408689 Z" id="Fill-1" fill="#FA4000" mask="url(#mask-2)"></path>
            </g>
            <path d="M59,400.708676 L59,544.668318 C59,573.387125 82.281193,596.668318 111,596.668318 L1925.23558,596.668318 C1948.43154,596.668318 1967.23558,577.864278 1967.23558,554.668318 L1967.23558,273.571429 C1967.23558,249.2709 1947.5361,229.571429 1923.23558,229.571429 L1593.9871,229.571429 C1591.77796,229.571429 1589.9871,227.780568 1589.9871,225.571429 C1589.9871,223.36229 1591.77796,221.571429 1593.9871,221.571429 L1923.23558,221.571429 C1951.95438,221.571429 1975.23558,244.852622 1975.23558,273.571429 L1975.23558,554.668318 C1975.23558,582.282556 1952.84981,604.668318 1925.23558,604.668318 L111,604.668318 C77.862915,604.668318 51,577.805403 51,544.668318 L51,400.708676 C40.7595278,398.827651 33,389.855707 33,379.071429 C33,366.921164 42.8497355,357.071429 55,357.071429 C67.1502645,357.071429 77,366.921164 77,379.071429 C77,389.855707 69.2404722,398.827651 59,400.708676 L59,400.708676 Z" id="Path-2" fill="#FF5700" fill-rule="nonzero"></path>
            <path d="M1550.38095,198.77442 C1550.38095,206.409074 1549.32144,212.205668 1547.20238,216.164377 C1545.08332,220.123087 1541.62225,223.092074 1536.81905,225.071429 C1541.62225,227.050783 1545.08332,230.019771 1547.20238,233.97848 C1549.32144,237.937189 1550.38095,243.733784 1550.38095,251.368437 L1550.38095,380.308608 C1550.38095,403.778099 1561.39989,415.512668 1583.4381,415.512668 L1597,415.512668 L1597,423.571429 L1586.40476,423.571429 C1556.73795,423.571429 1541.90476,409.150633 1541.90476,380.308608 L1541.90476,251.368437 C1541.90476,236.381895 1535.54768,228.888736 1522.83333,228.888736 L1508,228.888736 L1508,220.829976 L1522.83333,220.829976 C1535.54768,220.829976 1541.90476,213.478197 1541.90476,198.77442 L1541.90476,69.8342491 C1541.90476,40.9922245 1556.73795,26.5714286 1586.40476,26.5714286 L1597,26.5714286 L1597,34.6301893 L1583.4381,34.6301893 C1561.39989,34.6301893 1550.38095,46.3647585 1550.38095,69.8342491 L1550.38095,198.77442 Z" id="{" fill="#FF5700" fill-rule="nonzero" transform="translate(1552.500000, 225.071429) rotate(-180.000000) translate(-1552.500000, -225.071429) "></path>
        </g>
    </g>
</svg>